<svg width="77" height="77" viewBox="0 0 77 77" fill="none" xmlns="http://www.w3.org/2000/svg">
<path d="M72.9722 2H8.0278C5.80331 2 4 3.80331 4 6.0278V70.9722C4 73.1967 5.80331 75 8.0278 75H72.9722C75.1967 75 77 73.1967 77 70.9722V6.0278C77 3.80331 75.1967 2 72.9722 2Z" fill="#3D5A98"/>
<path d="M54.3619 74.9937V46.7251H63.8485L65.2672 35.7088H54.3619V28.6771C54.3619 25.4882 55.2501 23.3108 59.8207 23.3108H65.6558V13.4418C62.8302 13.1473 59.9907 13.0073 57.1499 13.0223C48.7489 13.0223 42.9632 18.1419 42.9632 27.5853V35.7088H33.4766V46.7251H42.9632V74.9937H54.3619Z" fill="white"/>
</svg>
