<svg width="28" height="29" viewBox="0 0 28 29" fill="none" xmlns="http://www.w3.org/2000/svg">
<path d="M26.3149 28.6009L15.8037 17.6703C14.9644 18.4139 13.9993 18.9893 12.9082 19.3966C11.8171 19.8039 10.7205 20.0075 9.6182 20.0075C6.93025 20.0075 4.65523 19.0399 2.79314 17.1047C0.931047 15.1683 0 12.8031 0 10.009C0 7.21496 0.929927 4.84857 2.78978 2.90984C4.65076 0.969946 6.92466 0 9.61149 0C12.2994 0 14.5756 0.968201 16.4399 2.9046C18.3042 4.841 19.2364 7.2074 19.2364 10.0038C19.2364 11.2164 19.0299 12.3899 18.617 13.5246C18.203 14.6592 17.6602 15.6297 16.9888 16.4361L27.5 27.3651L26.3133 28.6009H26.3149ZM9.6182 18.2602C11.8451 18.2602 13.7257 17.4631 15.2599 15.8688C16.793 14.2746 17.5595 12.319 17.5595 10.002C17.5595 7.68626 16.793 5.73124 15.2599 4.13696C13.7268 2.54269 11.8468 1.74555 9.61988 1.74555C7.39298 1.74555 5.51242 2.54269 3.97821 4.13696C2.44512 5.73124 1.67857 7.68626 1.67857 10.002C1.67857 12.3178 2.44512 14.2728 3.97821 15.8671C5.5113 17.4614 7.3913 18.2602 9.6182 18.2602Z" fill="white"/>
</svg>
